<svg width="50" height="40" viewBox="0 0 50 40" fill="none" xmlns="http://www.w3.org/2000/svg">
<path fill-rule="evenodd" clip-rule="evenodd" d="M8.33335 6.66663H41.6667C43.9584 6.66663 45.8334 8.16663 45.8334 9.99996V30C45.8334 31.8333 43.9584 33.3333 41.6667 33.3333H8.33335C6.04169 33.3333 4.16669 31.8333 4.16669 30L4.18752 9.99996C4.18752 8.16663 6.04169 6.66663 8.33335 6.66663ZM26.1042 21.1166L40.8334 13.75C41.3542 13.4833 41.6667 13.0333 41.6667 12.55C41.6667 11.4333 40.1459 10.7666 38.9584 11.35L25 18.3333L11.0417 11.35C9.85419 10.7666 8.33335 11.4333 8.33335 12.55C8.33335 13.0333 8.64585 13.4833 9.16669 13.75L23.8959 21.1166C24.5625 21.45 25.4375 21.45 26.1042 21.1166Z" fill="#1C2626"/>
</svg>
