<svg width="100" height="28" viewBox="0 0 100 28" fill="none" xmlns="http://www.w3.org/2000/svg">
<path d="M29.54 0.475999V27H24.22V9.748L17.114 27H13.086L5.942 9.748V27H0.622V0.475999H6.664L15.1 20.198L23.536 0.475999H29.54ZM51.6337 5.948V27H46.2757V24.34C45.5917 25.252 44.6924 25.974 43.5777 26.506C42.4884 27.0127 41.2977 27.266 40.0057 27.266C38.3591 27.266 36.9024 26.924 35.6357 26.24C34.3691 25.5307 33.3684 24.5047 32.6337 23.162C31.9244 21.794 31.5697 20.1727 31.5697 18.298V5.948H36.8897V17.538C36.8897 19.21 37.3077 20.502 38.1437 21.414C38.9797 22.3007 40.1197 22.744 41.5637 22.744C43.0331 22.744 44.1857 22.3007 45.0217 21.414C45.8577 20.502 46.2757 19.21 46.2757 17.538V5.948H51.6337ZM61.8988 27.342C60.1761 27.342 58.6308 27.038 57.2628 26.43C55.8948 25.7967 54.8054 24.948 53.9948 23.884C53.2094 22.82 52.7788 21.642 52.7028 20.35H58.0608C58.1621 21.1607 58.5548 21.832 59.2388 22.364C59.9481 22.896 60.8221 23.162 61.8608 23.162C62.8741 23.162 63.6594 22.9593 64.2168 22.554C64.7994 22.1487 65.0908 21.6293 65.0908 20.996C65.0908 20.312 64.7361 19.8053 64.0268 19.476C63.3428 19.1213 62.2408 18.7413 60.7208 18.336C59.1501 17.956 57.8581 17.5633 56.8448 17.158C55.8568 16.7527 54.9954 16.132 54.2608 15.296C53.5514 14.46 53.1968 13.3327 53.1968 11.914C53.1968 10.7487 53.5261 9.68467 54.1848 8.722C54.8688 7.75933 55.8314 6.99933 57.0728 6.442C58.3394 5.88467 59.8214 5.606 61.5188 5.606C64.0268 5.606 66.0281 6.23933 67.5228 7.506C69.0174 8.74733 69.8408 10.432 69.9928 12.56H64.9008C64.8248 11.724 64.4701 11.0653 63.8368 10.584C63.2288 10.0773 62.4054 9.824 61.3668 9.824C60.4041 9.824 59.6568 10.0013 59.1248 10.356C58.6181 10.7107 58.3648 11.2047 58.3648 11.838C58.3648 12.5473 58.7194 13.092 59.4288 13.472C60.1381 13.8267 61.2401 14.194 62.7348 14.574C64.2548 14.954 65.5088 15.3467 66.4968 15.752C67.4848 16.1573 68.3334 16.7907 69.0428 17.652C69.7774 18.488 70.1574 19.6027 70.1828 20.996C70.1828 22.212 69.8408 23.3013 69.1568 24.264C68.4981 25.2267 67.5354 25.9867 66.2688 26.544C65.0274 27.076 63.5708 27.342 61.8988 27.342ZM70.1418 16.398C70.1418 14.27 70.5598 12.3827 71.3958 10.736C72.2571 9.08933 73.4098 7.82267 74.8538 6.936C76.3231 6.04933 77.9571 5.606 79.7558 5.606C81.3265 5.606 82.6945 5.92267 83.8598 6.556C85.0505 7.18933 86.0005 7.98733 86.7098 8.95V5.948H92.0678V27H86.7098V23.922C86.0258 24.91 85.0758 25.7333 83.8598 26.392C82.6691 27.0253 81.2885 27.342 79.7178 27.342C77.9445 27.342 76.3231 26.886 74.8538 25.974C73.4098 25.062 72.2571 23.7827 71.3958 22.136C70.5598 20.464 70.1418 18.5513 70.1418 16.398ZM86.7098 16.474C86.7098 15.182 86.4565 14.08 85.9498 13.168C85.4431 12.2307 84.7591 11.5213 83.8978 11.04C83.0365 10.5333 82.1118 10.28 81.1238 10.28C80.1358 10.28 79.2238 10.5207 78.3878 11.002C77.5518 11.4833 76.8678 12.1927 76.3358 13.13C75.8291 14.042 75.5758 15.1313 75.5758 16.398C75.5758 17.6647 75.8291 18.7793 76.3358 19.742C76.8678 20.6793 77.5518 21.4013 78.3878 21.908C79.2491 22.4147 80.1611 22.668 81.1238 22.668C82.1118 22.668 83.0365 22.4273 83.8978 21.946C84.7591 21.4393 85.4431 20.73 85.9498 19.818C86.4565 18.8807 86.7098 17.766 86.7098 16.474Z" fill="#1C2626"/>
<path d="M96.5797 27.266C95.617 27.266 94.819 26.9747 94.1857 26.392C93.5777 25.784 93.2737 25.0367 93.2737 24.15C93.2737 23.2633 93.5777 22.5287 94.1857 21.946C94.819 21.338 95.617 21.034 96.5797 21.034C97.517 21.034 98.2897 21.338 98.8977 21.946C99.5057 22.5287 99.8097 23.2633 99.8097 24.15C99.8097 25.0367 99.5057 25.784 98.8977 26.392C98.2897 26.9747 97.517 27.266 96.5797 27.266Z" fill="#CE7355"/>
</svg>
