<svg width="40" height="40" viewBox="0 0 40 40" fill="none" xmlns="http://www.w3.org/2000/svg">
<path fill-rule="evenodd" clip-rule="evenodd" d="M21.6447 5.02197H33.3114C34.2281 5.02197 34.9781 5.77197 34.9781 6.68864V15.022C34.9781 15.9386 34.2281 16.6886 33.3114 16.6886H24.9781L19.9781 21.6886V6.68864C19.9781 5.77197 20.7281 5.02197 21.6447 5.02197ZM27.7947 24.972L32.0281 25.4553C33.7114 25.6553 34.9781 27.072 34.9614 28.7553V31.6386C34.9614 33.522 33.3947 35.0886 31.5114 34.972C17.2947 34.0886 5.9114 22.722 5.02806 8.48864C4.9114 6.60531 6.47806 5.03864 8.3614 5.03864H11.2447C12.9447 5.03864 14.3614 6.30531 14.5614 7.98864L15.0447 12.1886C15.1614 13.2053 14.8114 14.2053 14.0947 14.922L11.0114 18.0053C13.4114 22.7386 17.2781 26.5886 21.9947 28.9886L25.0614 25.922C25.7781 25.2053 26.7781 24.8553 27.7947 24.972Z" fill="#1C2626"/>
</svg>
